# xmcd
#
# Track frame offsets:
#	150
#	16773
#	28426
#	39221
#	54682
#	73724
#	87685
#	98518
#	110071
#	125418
#	143794
#	162387
#	179356
#	196812
#	212601
#	222899
#	237306
#	249683
#	272208
#	289002
#	316159
#
# Disc length: 4440 seconds
#
# Revision: 0
# Processed by: cddbd v1.5.1PL0 Copyright (c) Steve Scherf et al.
# Submitted via: EasyCDDAExtractor 8.0.0.2
#
DISCID=39115615
DTITLE=Various Artist - Dixiland Favourites - Jazz History 06
DYEAR=2001
DGENRE=Big Band
TTITLE0=Benkó Dixiland - When I'm Sixty Four
TTITLE1=Benkó Dixiland - Yes Sir, That's My Baby
TTITLE2=Benkó Dixiland - Az egyknek sikerül (One Succeeds)
TTITLE3=Benkó Dixiland - Everybody Loves My Baby
TTITLE4=Benkó Dixiland - Alkonyatkor (At Sunset)
TTITLE5=Benkó Dixiland - Willie The Weeper
TTITLE6=Benkó Dixiland - Lonesome Road
TTITLE7=Benkó Dixiland - Victoria
TTITLE8=Studium Dixiland Oktett - Bill Bailey
TTITLE9=Lucky Boys - It's A Long Way (Tipperary)
TTITLE10=Lucky Boys - Tiger Rag
TTITLE11=Lucky Boys - Alexander's Ragtime Band
TTITLE12=Lucky Boys - High Society
TTITLE13=Lucky Boys - Barcarolle (Hoffman meséi)
TTITLE14=Lucky Boys - Marie, Michelle, Janette
TTITLE15=Molnár Dixiland Band - Ory's Creole Trombone
TTITLE16=Molnár Dixiland Band - Freight Train Blues
TTITLE17=Molnár Dixiland Band - Minek a szõke énnekem... (What To Do With A Bl
TTITLE17=ond One?) 
TTITLE18=Molnár Dixiland Band - St.Louis Blues
TTITLE19=Molnár Dixiland Band - Bourbon Street Parade
TTITLE20=Molnár Dixiland Band - When The Saints Go Marchin' In
EXTD=
EXTT0=
EXTT1=
EXTT2=
EXTT3=
EXTT4=
EXTT5=
EXTT6=
EXTT7=
EXTT8=
EXTT9=
EXTT10=
EXTT11=
EXTT12=
EXTT13=
EXTT14=
EXTT15=
EXTT16=
EXTT17=
EXTT18=
EXTT19=
EXTT20=
PLAYORDER=
